<?xml version="1.0" encoding="utf-8"?>
<!-- Generator: Adobe Illustrator 17.1.0, SVG Export Plug-In . SVG Version: 6.00 Build 0)  -->
<!DOCTYPE svg PUBLIC "-//W3C//DTD SVG 1.1//EN" "http://www.w3.org/Graphics/SVG/1.1/DTD/svg11.dtd">
<svg version="1.1" id="Layer_1" xmlns="http://www.w3.org/2000/svg" xmlns:xlink="http://www.w3.org/1999/xlink" x="0px" y="0px"
	 viewBox="0 0 30 30" enable-background="new 0 0 30 30" xml:space="preserve">
<path fill="#180E20" d="M18.261,0.593l-0.608-0.204C16.801,0.135,15.913,0,15,0C8.551,0,3.323,6.716,3.323,15
	c0,8.284,5.228,15,11.677,15s11.677-6.716,11.677-15C26.677,8.17,23.123,2.406,18.261,0.593z M5.958,15.308
	c-0.37,0-0.67-0.3-0.67-0.67c0-0.37,0.3-0.67,0.67-0.67c0.37,0,0.67,0.3,0.67,0.67C6.628,15.008,6.327,15.308,5.958,15.308z
	 M5.958,13.165c-0.37,0-0.67-0.299-0.67-0.67c0-0.37,0.3-0.67,0.67-0.67c0.37,0,0.67,0.3,0.67,0.67
	C6.628,12.865,6.327,13.165,5.958,13.165z M19.309,2.183c0.37,0,0.67,0.3,0.67,0.67c0,0.37-0.3,0.67-0.67,0.67
	c-0.37,0-0.67-0.3-0.67-0.67C18.639,2.483,18.939,2.183,19.309,2.183z M19.309,4.058c0.37,0,0.67,0.3,0.67,0.67
	c0,0.37-0.3,0.67-0.67,0.67c-0.37,0-0.67-0.3-0.67-0.67C18.639,4.358,18.939,4.058,19.309,4.058z M19.309,5.933
	c0.37,0,0.67,0.3,0.67,0.67c0,0.37-0.3,0.67-0.67,0.67c-0.37,0-0.67-0.3-0.67-0.67C18.639,6.233,18.939,5.933,19.309,5.933z
	 M16.407,5.933c0.37,0,0.67,0.3,0.67,0.67c0,0.37-0.3,0.67-0.67,0.67c-0.37,0-0.67-0.3-0.67-0.67
	C15.738,6.233,16.037,5.933,16.407,5.933z M14.175,5.933c0.37,0,0.67,0.3,0.67,0.67c0,0.37-0.3,0.67-0.67,0.67
	c-0.37,0-0.67-0.3-0.67-0.67C13.506,6.233,13.805,5.933,14.175,5.933z M11.139,2.183c0.37,0,0.67,0.3,0.67,0.67
	c0,0.37-0.299,0.67-0.67,0.67c-0.37,0-0.67-0.3-0.67-0.67C10.47,2.483,10.77,2.183,11.139,2.183z M11.139,4.058
	c0.37,0,0.67,0.3,0.67,0.67c0,0.37-0.299,0.67-0.67,0.67c-0.37,0-0.67-0.3-0.67-0.67C10.47,4.358,10.77,4.058,11.139,4.058z
	 M11.139,5.933c0.37,0,0.67,0.3,0.67,0.67c0,0.37-0.299,0.67-0.67,0.67c-0.37,0-0.67-0.3-0.67-0.67
	C10.47,6.233,10.77,5.933,11.139,5.933z M9.124,25.754c-0.37,0-0.67-0.3-0.67-0.67c0-0.37,0.3-0.67,0.67-0.67
	c0.37,0,0.67,0.3,0.67,0.67C9.794,25.454,9.493,25.754,9.124,25.754z M9.661,23.478c-0.37,0-0.67-0.3-0.67-0.67
	s0.3-0.669,0.67-0.669c0.37,0,0.67,0.299,0.67,0.669S10.03,23.478,9.661,23.478z M9.5,13.867c0-0.887,0.999-1.607,2.231-1.607
	s2.231,0.72,2.231,1.607c0,0.888-0.999,1.607-2.231,1.607S9.5,14.755,9.5,13.867z M11.731,20.798c0-0.37,0.3-0.67,0.67-0.67
	c0.37,0,0.67,0.3,0.67,0.67c0,0.37-0.299,0.67-0.67,0.67C12.03,21.468,11.731,21.168,11.731,20.798z M13.472,27.338
	c-0.37,0-0.67-0.3-0.67-0.669c0-0.37,0.3-0.67,0.67-0.67c0.37,0,0.67,0.3,0.67,0.67C14.141,27.038,13.841,27.338,13.472,27.338z
	 M13.472,24.616c-0.37,0-0.67-0.3-0.67-0.67s0.3-0.669,0.67-0.669c0.37,0,0.67,0.299,0.67,0.669S13.841,24.616,13.472,24.616z
	 M15.161,21.468c-0.666,0-1.206-0.54-1.206-1.206c0-0.666,0.54-1.206,1.206-1.206c0.666,0,1.205,0.54,1.205,1.206
	C16.366,20.928,15.826,21.468,15.161,21.468z M16.753,27.338c-0.37,0-0.67-0.3-0.67-0.669c0-0.37,0.299-0.67,0.67-0.67
	c0.37,0,0.67,0.3,0.67,0.67C17.422,27.038,17.123,27.338,16.753,27.338z M16.753,24.615c-0.37,0-0.67-0.3-0.67-0.669
	c0-0.37,0.299-0.67,0.67-0.67c0.37,0,0.67,0.3,0.67,0.67C17.422,24.315,17.123,24.615,16.753,24.615z M17.802,21.468
	c-0.37,0-0.67-0.3-0.67-0.67c0-0.37,0.3-0.67,0.67-0.67c0.37,0,0.67,0.3,0.67,0.67C18.471,21.168,18.172,21.468,17.802,21.468z
	 M16.753,13.867c0-0.887,0.998-1.607,2.231-1.607c1.232,0,2.231,0.72,2.231,1.607c0,0.888-0.999,1.607-2.231,1.607
	C17.751,15.474,16.753,14.755,16.753,13.867z M20.009,22.627c0.099-0.357,0.469-0.563,0.825-0.464c0.356,0.1,0.564,0.47,0.464,0.826
	c-0.099,0.357-0.469,0.564-0.826,0.464C20.116,23.353,19.909,22.983,20.009,22.627z M21.194,25.754c-0.37,0-0.67-0.3-0.67-0.67
	c0-0.37,0.299-0.67,0.67-0.67s0.67,0.3,0.67,0.67C21.864,25.454,21.563,25.754,21.194,25.754z M24.043,11.826
	c0.37,0,0.67,0.3,0.67,0.67c0,0.37-0.299,0.67-0.67,0.67c-0.37,0-0.67-0.299-0.67-0.67C23.373,12.125,23.673,11.826,24.043,11.826z
	 M24.043,15.308c-0.37,0-0.67-0.3-0.67-0.67c0-0.37,0.299-0.67,0.67-0.67c0.37,0,0.67,0.3,0.67,0.67
	C24.712,15.008,24.412,15.308,24.043,15.308z"/>
</svg>
